<?xml version="1.0" standalone="no"?>
<!DOCTYPE svg PUBLIC "-//W3C//DTD SVG 20010904//EN"
 "http://www.w3.org/TR/2001/REC-SVG-20010904/DTD/svg10.dtd">
<svg version="1.0" xmlns="http://www.w3.org/2000/svg"
 width="100.000000pt" height="100.000000pt" viewBox="0 0 100.000000 100.000000"
 preserveAspectRatio="xMidYMid meet">

<g transform="translate(0.000000,100.000000) scale(0.100000,-0.100000)"
fill="#000000" stroke="none">
<path d="M412 820 c-36 -41 -117 -187 -153 -277 -43 -105 -72 -238 -59 -263
13 -24 47 -26 77 -5 20 14 20 13 -5 -81 -23 -84 -24 -96 -11 -110 34 -33 52
-1 111 205 l12 44 13 -31 c7 -17 21 -33 32 -37 43 -13 178 69 379 228 88 70
112 94 110 111 -7 49 -52 28 -203 -95 -77 -62 -244 -174 -251 -167 -6 7 76
164 119 228 39 58 44 78 25 99 -11 10 -3 22 40 59 54 48 65 75 35 86 -20 8
-80 -32 -129 -86 -49 -55 -60 -82 -45 -111 11 -20 6 -33 -44 -117 -31 -52 -54
-86 -51 -75 34 120 67 288 69 347 2 69 1 73 -21 76 -15 2 -31 -6 -50 -28z
m-26 -236 c-13 -50 -29 -102 -36 -115 -20 -36 -62 -90 -67 -85 -9 8 39 138 79
220 22 43 41 76 43 74 2 -2 -7 -44 -19 -94z"/>
</g>
</svg>
